<svg width="50" height="50" viewBox="0 0 50 50" fill="none" xmlns="http://www.w3.org/2000/svg">
<rect width="50" height="50" rx="10" fill="#E0ECFC"/>
<g clip-path="url(#clip0_3_1147)">
<path d="M21.7934 22.5271H15.0111C14.5261 22.5271 14.1324 22.9207 14.1324 23.4058C14.1324 23.8908 14.5261 24.2845 15.0111 24.2845H21.7934C22.2784 24.2845 22.6721 23.8908 22.6721 23.4058C22.6721 22.9207 22.279 22.5271 21.7934 22.5271Z" fill="#15AAD6"/>
<path d="M21.7934 19.0125H15.0111C14.5261 19.0125 14.1324 19.4061 14.1324 19.8911C14.1324 20.3762 14.5261 20.7698 15.0111 20.7698H21.7934C22.2784 20.7698 22.6721 20.3762 22.6721 19.8911C22.6721 19.4061 22.279 19.0125 21.7934 19.0125Z" fill="#15AAD6"/>
<path d="M28.1152 15.4976H15.0111C14.5261 15.4976 14.1324 15.8912 14.1324 16.3762C14.1324 16.8613 14.5261 17.2549 15.0111 17.2549H28.1152C28.6003 17.2549 28.9939 16.8613 28.9939 16.3762C28.9939 15.8912 28.6003 15.4976 28.1152 15.4976Z" fill="#15AAD6"/>
<path d="M21.7934 26.0183H15.0111C14.5261 26.0183 14.1324 26.412 14.1324 26.897C14.1324 27.382 14.5261 27.7757 15.0111 27.7757H21.7934C22.2784 27.7757 22.6721 27.382 22.6721 26.897C22.6721 26.412 22.279 26.0183 21.7934 26.0183Z" fill="#15AAD6"/>
<path d="M21.7934 28.9473H15.0111C14.5261 28.9473 14.1324 29.3409 14.1324 29.8259C14.1324 30.311 14.5261 30.7046 15.0111 30.7046H21.7934C22.2784 30.7046 22.6721 30.311 22.6721 29.8259C22.6721 29.3409 22.279 28.9473 21.7934 28.9473Z" fill="#15AAD6"/>
<path d="M21.7934 32.4626H15.0111C14.5261 32.4626 14.1324 32.8563 14.1324 33.3413C14.1324 33.8264 14.5261 34.22 15.0111 34.22H21.7934C22.2784 34.22 22.6721 33.8264 22.6721 33.3413C22.6721 32.8563 22.279 32.4626 21.7934 32.4626Z" fill="#15AAD6"/>
<path d="M11.7612 38.235V11.7574H31.4208V22.5335L33.1782 22.5206V11.4645C33.1782 10.6573 32.5215 10 31.7137 10H11.4683C10.661 10 10.0038 10.6573 10.0038 11.4645V38.5279C10.0038 39.3357 10.661 39.9924 11.4683 39.9924H32.3499C31.5508 39.809 29.1228 38.235 29.1228 38.235H11.7612Z" fill="#15AAD6"/>
<path d="M34.2086 28.6744L31.7173 31.3234L30.8439 30.2502C30.5375 29.8741 29.9839 29.8173 29.6078 30.1237C29.2318 30.43 29.1749 30.9836 29.4813 31.3597L30.9885 33.2108C31.1485 33.407 31.3851 33.5253 31.6388 33.5341C31.6493 33.5341 31.6599 33.5347 31.6704 33.5347C31.9123 33.5347 32.1443 33.4351 32.3107 33.2582L35.4897 29.8782C35.8225 29.525 35.8055 28.9685 35.4517 28.6363C35.0979 28.3042 34.5419 28.3212 34.2098 28.6744H34.2086Z" fill="#6368BD"/>
<path d="M32.3499 39.9924C32.4032 40.0047 32.4325 40.0018 32.4418 39.9866C32.4407 39.9866 32.4395 39.9866 32.4383 39.9872C32.4301 39.9883 32.3686 39.9924 32.3499 39.9924Z" fill="#6368BD"/>
<path d="M39.9651 25.4489C39.9616 24.9656 39.5686 24.5767 39.0865 24.5767C39.0777 24.5767 39.0683 24.5767 39.0589 24.5767C37.984 24.5767 36.9964 23.9604 36.5395 23.0021C36.3936 22.6963 36.0849 22.5012 35.7463 22.5012H35.7399L33.1782 22.52L31.4208 22.5329L28.7022 22.5528C28.3607 22.5551 28.052 22.7549 27.9096 23.0653C27.4644 24.0366 26.4774 24.6692 25.3942 24.6768C25.1611 24.6786 24.9385 24.7729 24.7745 24.9387C24.611 25.1045 24.5202 25.3288 24.522 25.562L24.553 29.6449C24.5671 31.4843 25.0697 33.2973 26.0058 34.8871C26.6543 35.9873 27.5001 36.9608 28.4931 37.7616C28.6969 37.9262 28.9066 38.0838 29.1228 38.2332C29.1228 38.2332 31.5509 39.8066 32.3499 39.9905C32.3686 39.9905 32.4301 39.9864 32.4383 39.9853C32.4395 39.9853 32.4407 39.9853 32.4419 39.9847C32.5643 39.9712 32.6844 39.9325 32.7939 39.8681L34.7891 38.6872C36.3854 37.7423 37.7104 36.3961 38.6219 34.794C39.5346 33.1901 40.0091 31.3701 39.995 29.5307L39.964 25.4477L39.9651 25.4489ZM33.894 37.1764L32.3388 38.0973L30.7694 37.1998C28.042 35.6399 26.3333 32.7402 26.3098 29.6332L26.2846 26.3434C27.5007 26.095 28.5739 25.3575 29.2323 24.3072L35.2349 24.2627C35.9091 25.3036 36.9934 26.0247 38.2131 26.255L38.2377 29.5447C38.2611 32.6518 36.5969 35.5754 33.8934 37.1758L33.894 37.1764Z" fill="#6368BD"/>
</g>
<defs>
<clipPath id="clip0_3_1147">
<rect width="29.9924" height="30" fill="white" transform="translate(10.0038 10)"/>
</clipPath>
</defs>
</svg>
