<svg width="68" height="20" viewBox="0 0 68 20" fill="none" xmlns="http://www.w3.org/2000/svg">
<path d="M52.0104 4.75058H50.0291C49.6645 4.75058 49.3687 5.04749 49.3687 5.41345V19.2336C49.3687 19.5995 49.6645 19.8964 50.0291 19.8964H52.0104C52.375 19.8964 52.6708 19.5961 52.6708 19.2336V5.41345C52.6708 5.04749 52.3715 4.75058 52.0104 4.75058Z" fill="white"/>
<path d="M13.2792 13.2194C13.293 13.2608 13.3136 13.3023 13.3308 13.3437C13.3446 13.3886 13.3583 13.43 13.3721 13.4714C15.2123 18.5776 20.8672 21.2083 26.0027 19.3475C31.1382 17.4832 33.8143 11.835 31.9741 6.7288C31.9603 6.68737 31.9397 6.64594 31.9225 6.60452C31.9087 6.55963 31.8949 6.5182 31.8812 6.47678C30.0409 1.36716 24.386 -1.2636 19.2505 0.597266C14.1151 2.45813 11.4424 8.10978 13.2792 13.2159V13.2194ZM28.9746 7.52977C28.9884 7.5712 28.9987 7.61608 29.0125 7.65751C29.0297 7.69894 29.0469 7.74037 29.0641 7.7818C30.3264 11.286 28.4862 15.1769 24.9605 16.4543C21.4348 17.7352 17.541 15.9227 16.2786 12.4184C16.2649 12.377 16.2546 12.3321 16.2374 12.2907C16.2202 12.2493 16.203 12.2113 16.1892 12.1664C14.9268 8.66217 16.7671 4.77127 20.2928 3.49386C23.8185 2.21646 27.7122 4.02554 28.9746 7.53322V7.52977Z" fill="white"/>
<path d="M65.7073 16.8928C61.9925 16.8548 58.9793 13.8132 58.9793 10.0742C58.9793 6.33524 61.9925 3.29364 65.7073 3.25566V0.151917C60.2795 0.189893 55.887 4.61592 55.887 10.0742C55.887 15.5325 60.2795 19.9586 65.7073 20V16.8928Z" fill="white"/>
<path d="M10.3588 16.8928C6.64394 16.8548 3.63075 13.8132 3.63075 10.0742C3.63075 6.33524 6.64394 3.29709 10.3588 3.25911V0.151917C4.92753 0.189893 0.538452 4.61592 0.538452 10.0742C0.538452 15.5325 4.92753 19.9586 10.3588 20V16.8928Z" fill="white"/>
<path d="M65.2223 8.23408C66.0822 7.913 67.0385 8.35146 67.3549 9.21457C67.6748 10.0777 67.238 11.0375 66.3781 11.3585C65.5181 11.6796 64.5653 11.2412 64.2454 10.378C63.9255 9.51493 64.3624 8.55861 65.2223 8.23753V8.23408Z" fill="white"/>
<path d="M50.2251 0.272757C51.0334 -0.162251 52.0378 0.141564 52.4712 0.952888C52.9046 1.76421 52.6019 2.77233 51.7936 3.20733C50.9852 3.64234 49.9809 3.33853 49.5474 2.5272C49.114 1.71588 49.4167 0.707765 50.2251 0.272757Z" fill="white"/>
<path d="M35.7267 16.7892C39.4416 16.7513 42.4548 13.7097 42.4548 9.97066C42.4548 6.23166 39.4416 3.19006 35.7267 3.15209V0.0483398C41.1546 0.0863167 45.5471 4.5158 45.5471 9.97066C45.5471 15.4255 41.1546 19.8585 35.7267 19.8964V16.7892Z" fill="white"/>
<path d="M35.7267 7.94061V11.324C36.6348 11.2929 37.3605 10.5507 37.3605 9.63231C37.3605 8.71396 36.6348 7.97168 35.7267 7.94061Z" fill="white"/>
</svg>
