<svg width="50" height="50" viewBox="0 0 50 50" fill="none" xmlns="http://www.w3.org/2000/svg">
<rect width="50" height="50" rx="10" fill="#E0ECFC"/>
<g clip-path="url(#clip0_3_1137)">
<path d="M25 17.5312C20.8818 17.5312 17.5312 20.8818 17.5312 25C17.5312 29.1183 20.8818 32.4688 25 32.4688C29.1183 32.4688 32.4688 29.1183 32.4688 25C32.4688 20.8818 29.1183 17.5312 25 17.5312ZM25 30.711C21.851 30.711 19.2891 28.149 19.2891 25C19.2891 21.851 21.851 19.2891 25 19.2891C28.149 19.2891 30.711 21.851 30.711 25C30.711 28.149 28.149 30.711 25 30.711Z" fill="#6368BD"/>
<path d="M25.2361 11.8858L25.6215 11.5004C25.9647 11.1572 25.9647 10.6007 25.6215 10.2574C25.2783 9.91417 24.7218 9.91423 24.3785 10.2574L22.4957 12.1403C22.3309 12.3051 22.2383 12.5286 22.2383 12.7617C22.2383 12.9948 22.3309 13.2183 22.4957 13.3832L24.3786 15.266C24.5502 15.4376 24.7752 15.5234 25 15.5234C25.2249 15.5234 25.4499 15.4376 25.6215 15.2659C25.9647 14.9227 25.9647 14.3662 25.6215 14.023L25.2421 13.6437C31.3943 13.773 36.3594 18.8174 36.3594 25C36.3594 25.4854 36.7529 25.8789 37.2383 25.8789C37.7237 25.8789 38.1172 25.4854 38.1172 25C38.1172 17.8461 32.3604 12.0123 25.2361 11.8858Z" fill="#15AAD6"/>
<path d="M25.4707 24.1211H24.5482C24.2438 24.1211 23.9961 23.8726 23.9961 23.5662C23.9961 23.2842 24.2247 23.0546 24.5057 23.0546H25.9414C26.4268 23.0546 26.8203 22.6611 26.8203 22.1757C26.8203 21.6904 26.4268 21.2968 25.9414 21.2968H25.8789V21.2344C25.8789 20.749 25.4854 20.3555 25 20.3555C24.5146 20.3555 24.1211 20.749 24.1211 21.2344V21.3302C23.0535 21.5136 22.2383 22.4463 22.2383 23.5672C22.2383 24.8419 23.2745 25.8789 24.5482 25.8789H25.4707C25.7648 25.8789 26.004 26.1182 26.004 26.4121C26.004 26.7061 25.7648 26.9453 25.4707 26.9453H24.0586C23.5732 26.9453 23.1797 27.3388 23.1797 27.8242C23.1797 28.3096 23.5732 28.7031 24.0586 28.7031H24.1211V28.7656C24.1211 29.251 24.5146 29.6445 25 29.6445C25.4854 29.6445 25.8789 29.251 25.8789 28.7656V28.666C26.948 28.4728 27.7618 27.536 27.7618 26.4121C27.7618 25.1488 26.7341 24.1211 25.4707 24.1211Z" fill="#6368BD"/>
<path d="M25.6214 34.7339C25.2782 34.3908 24.7217 34.3907 24.3785 34.7339C24.0352 35.0772 24.0352 35.6337 24.3785 35.9769L24.7579 36.3562C18.6056 36.2269 13.6406 31.1826 13.6406 25C13.6406 24.5146 13.2471 24.1211 12.7617 24.1211C12.2763 24.1211 11.8828 24.5146 11.8828 25C11.8828 32.1539 17.6396 37.9877 24.7639 38.1142L24.3785 38.4996C24.0353 38.8428 24.0353 39.3994 24.3785 39.7426C24.5501 39.9142 24.775 40 25 40C25.2249 40 25.4498 39.9142 25.6214 39.7426L27.5043 37.8597C27.6691 37.6949 27.7617 37.4714 27.7617 37.2383C27.7617 37.0052 27.6691 36.7817 27.5043 36.6169L25.6214 34.7339Z" fill="#15AAD6"/>
</g>
<defs>
<clipPath id="clip0_3_1137">
<rect width="30" height="30" fill="white" transform="translate(10 10)"/>
</clipPath>
</defs>
</svg>
