<svg width="60" height="60" viewBox="0 0 60 60" fill="none" xmlns="http://www.w3.org/2000/svg">
<path d="M51.4794 0H5.96175C2.77474 0 0.191162 2.58358 0.191162 5.77059V51.2882C0.191162 54.4752 2.77474 57.0588 5.96175 57.0588H51.4794C54.6664 57.0588 57.25 54.4752 57.25 51.2882V5.77059C57.25 2.58358 54.6664 0 51.4794 0Z" fill="#6368BD"/>
<path d="M31.3677 60H53.7441C56.9324 60 59.603 57.4883 59.603 54.3V31.1765H31.3677V60Z" fill="#15AAD6"/>
<path d="M49.0147 12.353H37.8383V15.2942H49.0147V12.353Z" fill="white"/>
<path d="M50.7794 41.1765H39.6029V44.1177H50.7794V41.1765Z" fill="white"/>
<path d="M50.7794 47.0588H39.6029V50H50.7794V47.0588Z" fill="white"/>
<path d="M20.1912 12.9412H15.4853V8.23535H12.5441V12.9412H7.83826V15.8824H12.5441V20.0001H15.4853V15.8824H20.1912V12.9412Z" fill="white"/>
<path d="M19.7147 39.4648L18.0971 37.8472L14.8559 41.0883L11.6147 37.8472L9.99121 39.4648L13.2324 42.706L9.99121 45.9472L11.6147 47.5707L14.8559 44.3295L18.0971 47.5707L19.7147 45.9472L16.4736 42.706L19.7147 39.4648Z" fill="white"/>
</svg>
