<svg width="524" height="140" viewBox="0 0 524 140" fill="none" xmlns="http://www.w3.org/2000/svg">
<g filter="url(#filter0_d_6_51)">
<path d="M10 8H513.618V98C513.618 114.569 500.186 128 483.618 128H40C23.4315 128 10 114.569 10 98V8Z" fill="white" shape-rendering="crispEdges"/>
<g clip-path="url(#clip0_6_51)">
<path d="M155.359 59.6412C155.359 60.9412 155.1 62.0941 154.588 63.0941C154.076 64.0941 153.376 64.9412 152.488 65.6294C151.6 66.3176 150.553 66.8412 149.353 67.2059C148.153 67.5706 146.847 67.7529 145.447 67.7529C143.418 67.7529 141.612 67.4941 140.024 66.9823C138.435 66.4706 136.988 65.5471 135.688 64.2235L139.071 60.8471C139.924 61.7 140.9 62.2882 142 62.6118C143.1 62.9353 144.276 63.1 145.529 63.1C147.082 63.1 148.259 62.8176 149.059 62.2529C149.859 61.6882 150.259 60.8706 150.259 59.7941C150.259 58.8176 149.982 58.0647 149.435 57.5412C149.159 57.2941 148.853 57.1 148.518 56.9588C148.182 56.8235 147.7 56.7 147.071 56.6L143.841 56.1471C141.565 55.8235 139.835 55.0823 138.659 53.9294C137.382 52.6529 136.741 50.9 136.741 48.6706C136.741 47.4706 136.953 46.3765 137.382 45.3882C137.806 44.4 138.418 43.5471 139.224 42.8353C140.024 42.1235 141 41.5647 142.153 41.1647C143.306 40.7647 144.606 40.5647 146.059 40.5647C147.912 40.5647 149.524 40.8059 150.9 41.2765C152.276 41.7471 153.541 42.5529 154.694 43.6765L151.388 46.9412C150.535 46.1412 149.629 45.6353 148.665 45.4176C147.7 45.2 146.782 45.1 145.906 45.1C144.506 45.1 143.465 45.4294 142.788 46.0941C142.112 46.7588 141.776 47.5529 141.776 48.4765C141.776 48.8294 141.841 49.1647 141.965 49.4882C142.088 49.8118 142.288 50.1118 142.565 50.3882C142.841 50.6412 143.182 50.8588 143.6 51.0471C144.012 51.2353 144.494 51.3647 145.047 51.4412L148.2 51.8941C149.424 52.0706 150.441 52.3235 151.241 52.6647C152.041 53.0059 152.729 53.4353 153.306 53.9588C154.029 54.6353 154.559 55.4471 154.882 56.4C155.206 57.3529 155.371 58.4294 155.371 59.6294L155.359 59.6412Z" fill="#6368BD"/>
<path d="M160.276 67.5295V40.7942H165.494V67.5236H160.276V67.5295Z" fill="#6368BD"/>
<path d="M190.723 67.5295V51.9471L185.618 62.0824H182.088L176.947 51.9471V67.5295H171.729V40.7942H176.871L183.853 55.2471L190.8 40.7942H195.941V67.5236H190.723V67.5295Z" fill="#6368BD"/>
<path d="M220.7 62.2354C220.188 63.3883 219.482 64.3707 218.594 65.1824C217.706 65.9942 216.665 66.6295 215.471 67.0765C214.282 67.5295 212.994 67.753 211.618 67.753C210.241 67.753 208.953 67.5295 207.759 67.0765C206.571 66.6236 205.529 65.9942 204.635 65.1824C203.747 64.3707 203.041 63.3883 202.529 62.2354C202.018 61.0824 201.759 59.7942 201.759 58.3707V40.7942H206.976V58.1765C206.976 59.7295 207.388 60.9354 208.218 61.8001C209.047 62.6648 210.171 63.0942 211.594 63.0942C213.018 63.0942 214.153 62.6648 214.994 61.8001C215.835 60.9354 216.253 59.7295 216.253 58.1765V40.7942H221.471V58.3648C221.471 59.7883 221.212 61.0824 220.7 62.2295V62.2354Z" fill="#6368BD"/>
<path d="M227.253 67.5295V40.7942H232.471V62.8707H244.6V67.5236H227.253V67.5295Z" fill="#6368BD"/>
<path d="M248.841 67.5295V40.7942H266.453V45.4471H254.065V51.7177H264.618V56.3707H254.065V62.8648H266.453V67.5177H248.841V67.5295Z" fill="#6368BD"/>
<path d="M297.535 59.6412C297.535 60.9412 297.277 62.0941 296.765 63.0941C296.253 64.0941 295.553 64.9412 294.665 65.6294C293.777 66.3176 292.729 66.8412 291.529 67.2059C290.329 67.5706 289.024 67.7529 287.624 67.7529C285.594 67.7529 283.788 67.4941 282.2 66.9823C280.612 66.4706 279.165 65.5471 277.865 64.2235L281.247 60.8471C282.1 61.7 283.077 62.2882 284.177 62.6118C285.277 62.9353 286.453 63.1 287.706 63.1C289.259 63.1 290.435 62.8176 291.235 62.2529C292.035 61.6882 292.435 60.8706 292.435 59.7941C292.435 58.8176 292.159 58.0647 291.612 57.5412C291.335 57.2941 291.029 57.1 290.694 56.9588C290.359 56.8235 289.877 56.7 289.247 56.6L286.018 56.1471C283.741 55.8235 282.012 55.0823 280.835 53.9294C279.559 52.6529 278.918 50.9 278.918 48.6706C278.918 47.4706 279.129 46.3765 279.559 45.3882C279.982 44.4 280.594 43.5471 281.4 42.8353C282.2 42.1235 283.177 41.5647 284.329 41.1647C285.482 40.7647 286.782 40.5647 288.235 40.5647C290.088 40.5647 291.7 40.8059 293.077 41.2765C294.453 41.7471 295.718 42.5529 296.871 43.6765L293.565 46.9412C292.712 46.1412 291.806 45.6353 290.841 45.4176C289.877 45.2 288.959 45.1 288.082 45.1C286.682 45.1 285.641 45.4294 284.965 46.0941C284.288 46.7588 283.953 47.5529 283.953 48.4765C283.953 48.8294 284.018 49.1647 284.141 49.4882C284.265 49.8118 284.465 50.1118 284.741 50.3882C285.018 50.6412 285.359 50.8588 285.777 51.0471C286.188 51.2353 286.671 51.3647 287.224 51.4412L290.377 51.8941C291.6 52.0706 292.618 52.3235 293.418 52.6647C294.218 53.0059 294.906 53.4353 295.482 53.9588C296.206 54.6353 296.735 55.4471 297.059 56.4C297.382 57.3529 297.547 58.4294 297.547 59.6294L297.535 59.6412Z" fill="#6368BD"/>
<path d="M302.453 67.5295V40.7942H320.065V45.4471H307.676V51.7177H318.229V56.3707H307.676V62.8648H320.065V67.5177H302.453V67.5295Z" fill="#6368BD"/>
<path d="M343.694 62.2354C343.182 63.3883 342.476 64.3707 341.588 65.1824C340.7 65.9942 339.659 66.6295 338.465 67.0765C337.276 67.5295 335.988 67.753 334.612 67.753C333.235 67.753 331.947 67.5295 330.759 67.0765C329.565 66.6236 328.529 65.9942 327.635 65.1824C326.747 64.3707 326.041 63.3883 325.529 62.2354C325.018 61.0824 324.759 59.7942 324.759 58.3707V40.7942H329.976V58.1765C329.976 59.7295 330.388 60.9354 331.218 61.8001C332.047 62.6648 333.171 63.0942 334.6 63.0942C336.029 63.0942 337.159 62.6648 338 61.8001C338.835 60.9354 339.259 59.7295 339.259 58.1765V40.7942H344.476V58.3648C344.476 59.7883 344.218 61.0824 343.706 62.2295L343.694 62.2354Z" fill="#6368BD"/>
<path d="M378.141 49.1295C378.141 50.2589 377.941 51.3295 377.541 52.3412C377.141 53.353 376.559 54.2412 375.794 55.006C375.029 55.7707 374.106 56.3707 373.018 56.806C371.929 57.2412 370.694 57.4648 369.318 57.4648H364.176V67.5295H358.959V40.7942H369.323C370.7 40.7942 371.929 41.0118 373.023 41.453C374.112 41.8883 375.041 42.4942 375.8 43.253C376.559 44.0118 377.147 44.906 377.547 45.9177C377.947 46.9295 378.147 48.0001 378.147 49.1295H378.141ZM372.923 49.1471C372.923 48.0412 372.576 47.1471 371.888 46.4707C371.2 45.7942 370.253 45.453 369.053 45.453H364.171V52.8118H369.053C370.253 52.8118 371.2 52.4765 371.888 51.8118C372.576 51.1471 372.923 50.2589 372.923 49.153V49.1471Z" fill="#6368BD"/>
<path d="M382.535 67.5295V40.7942H387.753V62.8707H399.882V67.5236H382.535V67.5295Z" fill="#6368BD"/>
<path d="M419.329 67.5295L417.753 62.8H408.253L406.641 67.5295H401.2L410.923 40.8H415.018L424.782 67.5295H419.335H419.329ZM413.1 48.6824L409.724 58.4059H416.371L413.106 48.6824H413.1Z" fill="#6368BD"/>
<path d="M443.882 67.5295L433.294 51.1236V67.5295H428.076V40.7942H432.729L443.318 57.1648V40.7942H448.535V67.5236H443.882V67.5295Z" fill="#6368BD"/>
<path d="M473.618 54.1588C473.618 55.3118 473.606 56.3882 473.582 57.3882C473.559 58.3882 473.465 59.3294 473.3 60.2059C473.135 61.0823 472.876 61.9 472.512 62.6647C472.147 63.4294 471.629 64.147 470.953 64.8235C470 65.7765 468.947 66.5 467.782 67C466.618 67.5 465.27 67.7529 463.747 67.7529C462.223 67.7529 460.87 67.5 459.694 67C458.518 66.5 457.453 65.7765 456.506 64.8235C455.829 64.147 455.312 63.4294 454.947 62.6647C454.582 61.9 454.329 61.0823 454.176 60.2059C454.023 59.3294 453.935 58.3882 453.912 57.3882C453.888 56.3882 453.876 55.3118 453.876 54.1588C453.876 53.0059 453.888 51.9294 453.912 50.9294C453.935 49.9294 454.023 48.9882 454.176 48.1118C454.329 47.2353 454.582 46.4176 454.947 45.6529C455.312 44.8882 455.829 44.1706 456.506 43.4941C457.459 42.5412 458.523 41.8176 459.694 41.3176C460.87 40.8176 462.223 40.5647 463.747 40.5647C465.27 40.5647 466.618 40.8176 467.782 41.3176C468.947 41.8176 470.006 42.5412 470.953 43.4941C471.629 44.1706 472.147 44.8882 472.512 45.6529C472.876 46.4176 473.135 47.2353 473.3 48.1118C473.465 48.9882 473.559 49.9294 473.582 50.9294C473.606 51.9294 473.618 53.0059 473.618 54.1588ZM468.4 54.1588C468.4 52.8823 468.382 51.8235 468.341 50.9882C468.306 50.1471 468.235 49.4529 468.135 48.9059C468.035 48.3588 467.9 47.9118 467.723 47.5706C467.547 47.2353 467.335 46.9235 467.088 46.6529C466.712 46.2294 466.241 45.8823 465.682 45.6235C465.118 45.3588 464.476 45.2294 463.747 45.2294C463.018 45.2294 462.37 45.3588 461.794 45.6235C461.218 45.8882 460.741 46.2294 460.371 46.6529C460.118 46.9294 459.912 47.2353 459.753 47.5706C459.588 47.9059 459.459 48.3529 459.359 48.9059C459.259 49.4588 459.188 50.1529 459.153 50.9882C459.118 51.8294 459.094 52.8823 459.094 54.1588C459.094 55.4353 459.112 56.4941 459.153 57.3294C459.188 58.1706 459.259 58.8647 459.359 59.4118C459.459 59.9647 459.588 60.4059 459.753 60.747C459.918 61.0823 460.123 61.3941 460.371 61.6647C460.747 62.0882 461.223 62.4353 461.794 62.6941C462.37 62.9588 463.018 63.0882 463.747 63.0882C464.476 63.0882 465.118 62.9588 465.682 62.6941C466.247 62.4294 466.712 62.0882 467.088 61.6647C467.335 61.3882 467.553 61.0823 467.723 60.747C467.9 60.4118 468.035 59.9647 468.135 59.4118C468.235 58.8647 468.306 58.1647 468.341 57.3294C468.376 56.4941 468.4 55.4353 468.4 54.1588Z" fill="#6368BD"/>
<path d="M101.288 38H55.7706C52.5836 38 50 40.5836 50 43.7706V89.2882C50 92.4752 52.5836 95.0588 55.7706 95.0588H101.288C104.475 95.0588 107.059 92.4752 107.059 89.2882V43.7706C107.059 40.5836 104.475 38 101.288 38Z" fill="#6368BD"/>
<path d="M81.1765 98H103.553C106.741 98 109.412 95.4883 109.412 92.3V69.1765H81.1765V98Z" fill="#15AAD6"/>
<path d="M98.8236 50.353H87.6471V53.2942H98.8236V50.353Z" fill="white"/>
<path d="M100.588 79.1765H89.4117V82.1177H100.588V79.1765Z" fill="white"/>
<path d="M100.588 85.0588H89.4117V88H100.588V85.0588Z" fill="white"/>
<path d="M70 50.9412H65.2942V46.2354H62.353V50.9412H57.6471V53.8824H62.353V58.0001H65.2942V53.8824H70V50.9412Z" fill="white"/>
<path d="M69.5236 77.4648L67.9059 75.8472L64.6648 79.0883L61.4236 75.8472L59.8 77.4648L63.0412 80.706L59.8 83.9472L61.4236 85.5707L64.6648 82.3295L67.9059 85.5707L69.5236 83.9472L66.2824 80.706L69.5236 77.4648Z" fill="white"/>
<path d="M143.453 93.8117C142.947 94.0529 142.323 94.1764 141.576 94.1764C140.929 94.1764 140.341 94.0647 139.823 93.847C139.3 93.6294 138.835 93.3117 138.418 92.8941C138.123 92.6 137.894 92.2823 137.735 91.947C137.576 91.6117 137.465 91.2529 137.4 90.8706C137.335 90.4882 137.294 90.0764 137.282 89.6353C137.271 89.1941 137.265 88.7235 137.265 88.2176C137.265 87.7117 137.265 87.2411 137.282 86.8C137.294 86.3588 137.329 85.947 137.4 85.5647C137.471 85.1823 137.576 84.8235 137.735 84.4882C137.894 84.1529 138.123 83.8353 138.418 83.5411C138.835 83.1235 139.306 82.8059 139.823 82.5882C140.347 82.3706 140.929 82.2588 141.576 82.2588C142.323 82.2588 142.947 82.3823 143.453 82.6294C143.959 82.8764 144.418 83.2058 144.835 83.6117L143.318 85.1294C143.065 84.8764 142.812 84.6764 142.559 84.5294C142.306 84.3823 141.976 84.3058 141.571 84.3058C141.253 84.3058 140.971 84.3588 140.729 84.4706C140.488 84.5823 140.282 84.7294 140.118 84.9176C140.006 85.0411 139.912 85.1706 139.835 85.3235C139.759 85.4706 139.7 85.6647 139.653 85.9059C139.606 86.147 139.576 86.4529 139.565 86.8294C139.553 87.2059 139.541 87.6706 139.541 88.2294C139.541 88.7882 139.547 89.2588 139.565 89.6294C139.582 90 139.612 90.3117 139.653 90.5529C139.694 90.7941 139.759 90.9882 139.835 91.1353C139.912 91.2823 140.006 91.4176 140.118 91.5411C140.282 91.7294 140.488 91.8764 140.729 91.9882C140.971 92.1 141.253 92.1529 141.571 92.1529C141.976 92.1529 142.306 92.0764 142.559 91.9294C142.812 91.7823 143.065 91.5823 143.318 91.3294L144.835 92.847C144.418 93.2647 143.959 93.5941 143.453 93.8353V93.8117Z" fill="#15AAD6"/>
<path d="M153.912 89.7822C153.912 90.5646 153.847 91.2116 153.712 91.7352C153.582 92.2587 153.323 92.7234 152.935 93.1293C152.671 93.4175 152.318 93.6646 151.882 93.8705C151.441 94.0764 150.906 94.1822 150.271 94.1822C149.635 94.1822 149.1 94.0764 148.665 93.8705C148.229 93.6646 147.882 93.4175 147.618 93.1293C147.235 92.7234 146.976 92.2587 146.841 91.7352C146.712 91.2116 146.641 90.5646 146.641 89.7822C146.641 88.9999 146.706 88.3528 146.841 87.8411C146.971 87.3234 147.229 86.8646 147.618 86.4587C147.882 86.1705 148.229 85.9234 148.665 85.7175C149.1 85.5116 149.635 85.4058 150.271 85.4058C150.906 85.4058 151.447 85.5116 151.882 85.7175C152.323 85.9234 152.671 86.1705 152.935 86.4587C153.318 86.8646 153.576 87.3234 153.712 87.8411C153.841 88.3587 153.912 89.0058 153.912 89.7822ZM151.771 89.7822C151.771 89.3293 151.741 88.9293 151.688 88.5705C151.635 88.2116 151.494 87.9234 151.276 87.7058C151.023 87.4528 150.688 87.3293 150.271 87.3293C149.853 87.3293 149.535 87.4528 149.282 87.7058C149.065 87.9234 148.923 88.2116 148.871 88.5705C148.818 88.9293 148.788 89.3293 148.788 89.7822C148.788 90.2352 148.818 90.6411 148.871 90.9999C148.923 91.3646 149.065 91.6528 149.282 91.8705C149.535 92.1234 149.865 92.2469 150.271 92.2469C150.676 92.2469 151.023 92.1234 151.276 91.8705C151.494 91.6528 151.635 91.3587 151.688 90.9999C151.741 90.6352 151.771 90.2293 151.771 89.7822Z" fill="#15AAD6"/>
<path d="M158.906 94.0764C158.465 94.0764 158.088 94.0058 157.776 93.8646C157.465 93.7234 157.206 93.5352 157 93.3058C156.794 93.0764 156.647 92.8117 156.553 92.5234C156.459 92.2352 156.412 91.9352 156.412 91.6234V87.3764H155.506V85.747H156.412V83.2117H158.553V85.747H160.071V87.3764H158.553V91.494C158.553 92.0117 158.8 92.2705 159.294 92.2705H160.071V94.0823H158.9L158.906 94.0764Z" fill="#15AAD6"/>
<path d="M166.629 94.0764V93.3353C166.341 93.6235 166.047 93.8294 165.729 93.9588C165.418 94.0882 165.012 94.1588 164.518 94.1588C163.565 94.1588 162.829 93.9059 162.329 93.4C162.1 93.1588 161.923 92.8706 161.8 92.5411C161.676 92.2117 161.618 91.8529 161.618 91.4706C161.618 91.1294 161.676 90.8117 161.8 90.5059C161.923 90.2059 162.1 89.9411 162.341 89.7176C162.582 89.4941 162.888 89.3117 163.253 89.1823C163.618 89.0529 164.053 88.9823 164.547 88.9823H166.57V88.5529C166.57 88.0823 166.447 87.7353 166.2 87.5235C165.953 87.3117 165.541 87.2 164.97 87.2C164.765 87.2 164.582 87.2117 164.429 87.2411C164.276 87.2706 164.135 87.3117 164.012 87.3647C163.888 87.4176 163.765 87.4882 163.659 87.5764C163.547 87.6647 163.441 87.7764 163.329 87.9058L161.965 86.5706C162.382 86.1117 162.823 85.7941 163.288 85.6294C163.753 85.4647 164.347 85.3823 165.059 85.3823C166.265 85.3823 167.176 85.6353 167.794 86.1411C168.412 86.647 168.718 87.4059 168.718 88.4117V94.0588H166.623L166.629 94.0764ZM166.582 90.4529H164.888C164.506 90.4529 164.206 90.5411 164 90.7059C163.794 90.8764 163.688 91.1176 163.688 91.4235C163.688 91.7294 163.788 91.9588 163.994 92.1411C164.2 92.3235 164.506 92.4117 164.923 92.4117C165.218 92.4117 165.47 92.3882 165.682 92.347C165.888 92.3059 166.088 92.1882 166.276 92C166.482 91.8 166.588 91.4411 166.588 90.9117V90.4529H166.582Z" fill="#15AAD6"/>
<path d="M177.529 93.0058C177.147 93.3999 176.723 93.694 176.271 93.8882C175.818 94.0823 175.288 94.1764 174.7 94.1764C174.271 94.1764 173.829 94.1117 173.376 93.9764C172.923 93.847 172.512 93.6117 172.141 93.2764C171.771 92.9411 171.471 92.494 171.229 91.9235C170.988 91.3587 170.865 90.6411 170.865 89.7764C170.865 88.9117 170.988 88.194 171.229 87.6293C171.471 87.0646 171.776 86.6176 172.141 86.2882C172.512 85.9587 172.923 85.7293 173.376 85.594C173.829 85.4646 174.276 85.394 174.7 85.394C175.294 85.394 175.818 85.4882 176.271 85.6764C176.723 85.8646 177.147 86.1529 177.529 86.547L176.082 87.994C175.865 87.7529 175.647 87.5823 175.441 87.4764C175.235 87.3705 174.988 87.3176 174.7 87.3176C174.194 87.3176 173.788 87.5058 173.482 87.8764C173.318 88.0823 173.194 88.3352 173.118 88.6352C173.041 88.9293 173 89.3117 173 89.7705C173 90.647 173.159 91.2882 173.476 91.6823C173.782 92.0529 174.188 92.2411 174.694 92.2411C174.982 92.2411 175.229 92.1882 175.435 92.0823C175.641 91.9764 175.859 91.8058 176.076 91.5646L177.523 92.9999L177.529 93.0058ZM174.712 97.4705H172.718L173.853 95.0646H175.435L174.712 97.4705Z" fill="#15AAD6"/>
<path d="M183.859 94.0763V93.3352C183.571 93.6234 183.276 93.8293 182.959 93.9587C182.647 94.0881 182.241 94.1587 181.747 94.1587C180.794 94.1587 180.059 93.9057 179.559 93.3999C179.329 93.1587 179.153 92.8705 179.029 92.541C178.906 92.2116 178.847 91.8528 178.847 91.4705C178.847 91.1293 178.906 90.8116 179.029 90.5057C179.153 90.2057 179.329 89.941 179.571 89.7175C179.812 89.494 180.118 89.3116 180.482 89.1822C180.847 89.0528 181.282 88.9822 181.776 88.9822H183.8V88.5528C183.8 88.0822 183.676 87.7352 183.429 87.5234C183.182 87.3116 182.771 87.1999 182.2 87.1999C181.994 87.1999 181.812 87.2116 181.659 87.241C181.506 87.2705 181.365 87.3116 181.241 87.3646C181.118 87.4175 180.994 87.4881 180.888 87.5763C180.776 87.6646 180.671 87.7763 180.559 87.9057L179.194 86.5705C179.612 86.1116 180.053 85.794 180.518 85.6293C180.982 85.4646 181.576 85.3822 182.288 85.3822C183.494 85.3822 184.406 85.6352 185.024 86.141C185.641 86.6469 185.947 87.4057 185.947 88.4116V94.0587H183.853L183.859 94.0763ZM185.524 82.9763C185.159 83.341 184.841 83.594 184.559 83.7352C184.276 83.8763 183.982 83.9469 183.659 83.9469C183.418 83.9469 183.206 83.9175 183.018 83.8587C182.829 83.7999 182.624 83.6999 182.394 83.5705C182.241 83.4822 182.088 83.4116 181.941 83.3587C181.794 83.3057 181.635 83.2763 181.471 83.2763C181.329 83.2763 181.182 83.2999 181.041 83.3528C180.9 83.4057 180.718 83.5352 180.5 83.7587L179.576 82.8175C179.941 82.4528 180.259 82.1999 180.529 82.0587C180.806 81.9175 181.1 81.8469 181.418 81.8469C181.671 81.8469 181.888 81.8763 182.071 81.9293C182.253 81.9822 182.459 82.0822 182.688 82.2234C182.853 82.3234 183.006 82.394 183.141 82.4469C183.276 82.4999 183.429 82.5234 183.594 82.5234C183.735 82.5234 183.882 82.4999 184.024 82.4469C184.165 82.394 184.347 82.2646 184.565 82.041L185.518 82.9822L185.524 82.9763ZM183.812 90.4528H182.118C181.735 90.4528 181.435 90.541 181.229 90.7057C181.024 90.8763 180.918 91.1175 180.918 91.4234C180.918 91.7293 181.018 91.9587 181.224 92.141C181.429 92.3234 181.735 92.4116 182.153 92.4116C182.447 92.4116 182.7 92.3881 182.912 92.3469C183.118 92.3057 183.318 92.1881 183.506 91.9999C183.712 91.7999 183.818 91.441 183.818 90.9116V90.4528H183.812Z" fill="#15AAD6"/>
<path d="M195.418 89.7822C195.418 90.5646 195.353 91.2116 195.218 91.7352C195.088 92.2587 194.829 92.7234 194.441 93.1293C194.176 93.4175 193.823 93.6646 193.388 93.8705C192.947 94.0764 192.412 94.1822 191.776 94.1822C191.141 94.1822 190.606 94.0764 190.17 93.8705C189.735 93.6646 189.388 93.4175 189.123 93.1293C188.741 92.7234 188.482 92.2587 188.347 91.7352C188.218 91.2116 188.147 90.5646 188.147 89.7822C188.147 88.9999 188.212 88.3528 188.347 87.8411C188.476 87.3234 188.735 86.8646 189.123 86.4587C189.388 86.1705 189.735 85.9234 190.17 85.7175C190.606 85.5116 191.141 85.4058 191.776 85.4058C192.412 85.4058 192.953 85.5116 193.388 85.7175C193.829 85.9234 194.176 86.1705 194.441 86.4587C194.823 86.8646 195.082 87.3234 195.218 87.8411C195.347 88.3587 195.418 89.0058 195.418 89.7822ZM193.276 89.7822C193.276 89.3293 193.247 88.9293 193.194 88.5705C193.141 88.2116 193 87.9234 192.782 87.7058C192.529 87.4528 192.194 87.3293 191.776 87.3293C191.359 87.3293 191.041 87.4528 190.788 87.7058C190.57 87.9234 190.429 88.2116 190.376 88.5705C190.323 88.9293 190.294 89.3293 190.294 89.7822C190.294 90.2352 190.323 90.6411 190.376 90.9999C190.429 91.3646 190.57 91.6528 190.788 91.8705C191.041 92.1234 191.371 92.2469 191.776 92.2469C192.182 92.2469 192.529 92.1234 192.782 91.8705C193 91.6528 193.141 91.3587 193.194 90.9999C193.247 90.6352 193.276 90.2293 193.276 89.7822Z" fill="#15AAD6"/>
<path d="M206.553 94.0764V93.2705C206.259 93.5999 205.941 93.8352 205.612 93.9705C205.282 94.1058 204.888 94.1764 204.424 94.1764C204.006 94.1764 203.612 94.1058 203.235 93.9705C202.865 93.8352 202.553 93.6411 202.312 93.3999C202.094 93.194 201.923 92.947 201.812 92.6587C201.694 92.3764 201.612 92.0705 201.559 91.7528C201.506 91.4352 201.471 91.1058 201.459 90.7646C201.447 90.4234 201.441 90.094 201.441 89.7764C201.441 89.4587 201.441 89.1293 201.459 88.794C201.471 88.4587 201.5 88.1352 201.559 87.8117C201.612 87.494 201.7 87.194 201.812 86.9117C201.929 86.6293 202.094 86.3823 202.312 86.1646C202.553 85.9234 202.859 85.7352 203.224 85.594C203.588 85.4529 203.982 85.3881 204.4 85.3881C204.841 85.3881 205.224 85.4528 205.559 85.5764C205.894 85.6999 206.206 85.9234 206.488 86.2411V82.3352H208.629V94.0646H206.535L206.553 94.0764ZM206.506 89.7764C206.506 89.4234 206.488 89.0999 206.459 88.8058C206.429 88.5117 206.359 88.2529 206.253 88.0293C206.147 87.8117 206 87.6352 205.806 87.5117C205.612 87.3881 205.359 87.3234 205.041 87.3234C204.724 87.3234 204.465 87.3881 204.276 87.5117C204.082 87.6352 203.941 87.8117 203.841 88.0293C203.741 88.247 203.676 88.5058 203.641 88.8058C203.606 89.0999 203.594 89.4234 203.594 89.7764C203.594 90.1293 203.612 90.4529 203.641 90.7587C203.676 91.0587 203.741 91.3234 203.841 91.5411C203.941 91.7587 204.088 91.9352 204.276 92.0587C204.471 92.1823 204.724 92.247 205.041 92.247C205.359 92.247 205.618 92.1823 205.806 92.0587C206 91.9352 206.147 91.7587 206.253 91.5411C206.359 91.3234 206.424 91.0587 206.459 90.7587C206.494 90.4587 206.506 90.1293 206.506 89.7764Z" fill="#15AAD6"/>
<path d="M212.994 90.4529C212.994 91.0117 213.159 91.4705 213.482 91.8294C213.806 92.1882 214.271 92.3647 214.876 92.3647C215.347 92.3647 215.723 92.3 215.994 92.1647C216.271 92.0352 216.541 91.8294 216.818 91.5529L218.118 92.8235C217.9 93.0411 217.676 93.2352 217.459 93.4C217.241 93.5647 217 93.7058 216.741 93.8176C216.482 93.9352 216.2 94.0235 215.894 94.0823C215.588 94.1411 215.241 94.1705 214.859 94.1705C214.353 94.1705 213.865 94.1058 213.382 93.9705C212.906 93.8411 212.482 93.6058 212.112 93.2705C211.741 92.9352 211.447 92.4882 211.223 91.9176C211 91.3529 210.888 90.6352 210.888 89.7705C210.888 89.0705 210.976 88.447 211.159 87.9C211.341 87.3588 211.594 86.8999 211.923 86.5235C212.253 86.1529 212.647 85.8705 213.1 85.6764C213.553 85.4823 214.065 85.3882 214.623 85.3882C215.218 85.3882 215.747 85.4941 216.212 85.6999C216.676 85.9058 217.071 86.1941 217.388 86.5588C217.706 86.9235 217.947 87.3529 218.112 87.8529C218.276 88.3529 218.359 88.9 218.359 89.4941V90.447H212.988L212.994 90.4529ZM216.253 88.9882C216.241 88.8 216.223 88.6411 216.194 88.4999C216.165 88.3647 216.118 88.2176 216.053 88.0647C215.929 87.8117 215.753 87.5999 215.518 87.4294C215.282 87.2588 214.982 87.1764 214.618 87.1764C214.253 87.1764 213.959 87.2588 213.718 87.4294C213.482 87.5999 213.306 87.8117 213.182 88.0647C213.118 88.2176 213.071 88.3647 213.041 88.4999C213.012 88.6352 212.994 88.8 212.982 88.9882H216.241H216.253Z" fill="#15AAD6"/>
<path d="M231.871 89.7822C231.871 90.0999 231.871 90.4293 231.853 90.7705C231.841 91.1116 231.812 91.4411 231.753 91.7587C231.7 92.0764 231.612 92.3822 231.488 92.6646C231.365 92.9528 231.2 93.1999 230.994 93.4058C230.753 93.6469 230.447 93.8352 230.082 93.9764C229.718 94.1175 229.324 94.1822 228.906 94.1822C228.465 94.1822 228.082 94.1175 227.753 93.994C227.424 93.8705 227.118 93.6469 226.829 93.3293V97.2352H224.688V85.5058H226.765V86.3116C227.059 85.9822 227.376 85.7469 227.712 85.6116C228.047 85.4764 228.447 85.4058 228.906 85.4058C229.324 85.4058 229.718 85.4764 230.082 85.6116C230.447 85.7469 230.753 85.9352 230.994 86.1822C231.2 86.3999 231.365 86.6528 231.488 86.9293C231.612 87.2116 231.694 87.5116 231.753 87.8293C231.806 88.1469 231.841 88.4764 231.853 88.8116C231.865 89.1469 231.871 89.4705 231.871 89.794V89.7822ZM229.729 89.7822C229.729 89.4293 229.712 89.1058 229.682 88.8116C229.647 88.5175 229.582 88.2587 229.482 88.0352C229.382 87.8175 229.235 87.6411 229.047 87.5175C228.853 87.394 228.6 87.3293 228.282 87.3293C227.965 87.3293 227.706 87.394 227.518 87.5175C227.324 87.6411 227.182 87.8175 227.082 88.0352C226.982 88.2528 226.918 88.5116 226.882 88.8116C226.847 89.1116 226.835 89.4293 226.835 89.7822C226.835 90.1352 226.853 90.4587 226.882 90.7646C226.912 91.0705 226.982 91.3293 227.082 91.5469C227.182 91.7646 227.329 91.9411 227.518 92.0646C227.712 92.1881 227.965 92.2528 228.282 92.2528C228.6 92.2528 228.859 92.1881 229.047 92.0646C229.241 91.9411 229.382 91.7646 229.482 91.5469C229.582 91.3293 229.647 91.0646 229.682 90.7646C229.718 90.4646 229.729 90.1352 229.729 89.7822Z" fill="#15AAD6"/>
<path d="M236.594 94.0763C236.153 94.0763 235.776 94.0057 235.459 93.8645C235.141 93.7234 234.882 93.5351 234.676 93.3057C234.47 93.0763 234.323 92.8116 234.229 92.5234C234.135 92.2351 234.088 91.9351 234.088 91.6234V82.3528H236.229V91.494C236.229 91.7469 236.288 91.941 236.4 92.0704C236.518 92.1998 236.712 92.2704 236.982 92.2704H237.806V94.0822H236.588L236.594 94.0763Z" fill="#15AAD6"/>
<path d="M244.188 94.0764V93.3353C243.9 93.6235 243.606 93.8294 243.288 93.9588C242.976 94.0882 242.571 94.1588 242.076 94.1588C241.123 94.1588 240.388 93.9059 239.888 93.4C239.659 93.1588 239.482 92.8706 239.359 92.5411C239.235 92.2117 239.176 91.8529 239.176 91.4706C239.176 91.1294 239.235 90.8117 239.359 90.5059C239.482 90.2059 239.659 89.9411 239.9 89.7176C240.141 89.4941 240.447 89.3117 240.812 89.1823C241.176 89.0529 241.612 88.9823 242.106 88.9823H244.129V88.5529C244.129 88.0823 244.006 87.7353 243.759 87.5235C243.512 87.3117 243.1 87.2 242.529 87.2C242.323 87.2 242.141 87.2117 241.988 87.2411C241.835 87.2706 241.694 87.3117 241.571 87.3647C241.447 87.4176 241.323 87.4882 241.218 87.5764C241.106 87.6647 241 87.7764 240.888 87.9058L239.523 86.5706C239.941 86.1117 240.382 85.7941 240.847 85.6294C241.312 85.4647 241.906 85.3823 242.618 85.3823C243.823 85.3823 244.735 85.6353 245.353 86.1411C245.971 86.647 246.276 87.4059 246.276 88.4117V94.0588H244.182L244.188 94.0764ZM244.141 90.4529H242.447C242.065 90.4529 241.765 90.5411 241.559 90.7059C241.353 90.8764 241.247 91.1176 241.247 91.4235C241.247 91.7294 241.347 91.9588 241.553 92.1411C241.759 92.3235 242.065 92.4117 242.482 92.4117C242.776 92.4117 243.029 92.3882 243.241 92.347C243.447 92.3059 243.647 92.1882 243.835 92C244.041 91.8 244.147 91.4411 244.147 90.9117V90.4529H244.141Z" fill="#15AAD6"/>
<path d="M253.841 94.0764V88.8882C253.841 88.594 253.8 88.347 253.718 88.147C253.635 87.947 253.523 87.7882 253.388 87.6705C253.253 87.5529 253.1 87.4646 252.929 87.4058C252.759 87.3529 252.594 87.3235 252.429 87.3235C252.265 87.3235 252.1 87.3529 251.929 87.4058C251.759 87.4587 251.606 87.547 251.471 87.6705C251.335 87.794 251.223 87.9529 251.135 88.147C251.047 88.347 251.006 88.594 251.006 88.8882V94.0764H248.865V85.494H250.959V86.2823C251.241 85.9882 251.571 85.7646 251.947 85.6176C252.323 85.4705 252.706 85.394 253.1 85.394C253.529 85.394 253.912 85.4588 254.253 85.594C254.594 85.7235 254.882 85.9117 255.123 86.1529C255.476 86.5058 255.706 86.8823 255.823 87.2823C255.941 87.6823 255.994 88.1176 255.994 88.594V94.0764H253.853H253.841Z" fill="#15AAD6"/>
<path d="M265.453 89.7822C265.453 90.5646 265.388 91.2116 265.253 91.7352C265.123 92.2587 264.865 92.7234 264.476 93.1293C264.212 93.4175 263.859 93.6646 263.423 93.8705C262.982 94.0764 262.447 94.1822 261.812 94.1822C261.176 94.1822 260.641 94.0764 260.206 93.8705C259.77 93.6646 259.423 93.4175 259.159 93.1293C258.776 92.7234 258.518 92.2587 258.382 91.7352C258.253 91.2116 258.182 90.5646 258.182 89.7822C258.182 88.9999 258.247 88.3528 258.382 87.8411C258.512 87.3234 258.77 86.8646 259.159 86.4587C259.423 86.1705 259.77 85.9234 260.206 85.7175C260.641 85.5116 261.176 85.4058 261.812 85.4058C262.447 85.4058 262.988 85.5116 263.423 85.7175C263.865 85.9234 264.212 86.1705 264.476 86.4587C264.859 86.8646 265.118 87.3234 265.253 87.8411C265.382 88.3587 265.453 89.0058 265.453 89.7822ZM263.312 89.7822C263.312 89.3293 263.282 88.9293 263.229 88.5705C263.176 88.2116 263.035 87.9234 262.818 87.7058C262.565 87.4528 262.229 87.3293 261.812 87.3293C261.394 87.3293 261.076 87.4528 260.823 87.7058C260.606 87.9234 260.465 88.2116 260.412 88.5705C260.359 88.9293 260.329 89.3293 260.329 89.7822C260.329 90.2352 260.359 90.6411 260.412 90.9999C260.465 91.3646 260.606 91.6528 260.823 91.8705C261.076 92.1234 261.406 92.2469 261.812 92.2469C262.218 92.2469 262.565 92.1234 262.818 91.8705C263.035 91.6528 263.176 91.3587 263.229 90.9999C263.282 90.6352 263.312 90.2293 263.312 89.7822Z" fill="#15AAD6"/>
<path d="M274.212 91.3764C274.212 91.847 274.117 92.2588 273.929 92.6117C273.741 92.9647 273.482 93.2529 273.153 93.4823C272.823 93.7117 272.435 93.8882 271.994 94C271.547 94.1176 271.076 94.1706 270.57 94.1706C270.229 94.1706 269.9 94.1588 269.582 94.1294C269.265 94.1 268.953 94.047 268.641 93.9588C268.335 93.8706 268.035 93.747 267.753 93.5941C267.465 93.4353 267.188 93.2235 266.912 92.947L268.312 91.5529C268.665 91.9059 269.047 92.1294 269.47 92.2176C269.894 92.3117 270.27 92.3588 270.6 92.3588C270.788 92.3588 270.97 92.3411 271.153 92.3117C271.335 92.2764 271.494 92.2235 271.641 92.1529C271.782 92.0823 271.9 91.9882 271.988 91.8764C272.076 91.7647 272.118 91.6294 272.118 91.4588C272.118 91.2353 272.053 91.0588 271.918 90.9176C271.782 90.7764 271.547 90.6941 271.212 90.6588L269.859 90.5235C269.076 90.447 268.465 90.2235 268.023 89.8588C267.576 89.4882 267.359 88.9117 267.359 88.1235C267.359 87.6823 267.447 87.2941 267.629 86.9529C267.812 86.6117 268.053 86.3294 268.353 86.0941C268.653 85.8647 269.006 85.6882 269.406 85.5647C269.806 85.4411 270.223 85.3823 270.665 85.3823C271.335 85.3823 271.941 85.4529 272.494 85.5941C273.041 85.7353 273.523 86 273.941 86.3823L272.623 87.7176C272.37 87.5 272.07 87.347 271.718 87.2647C271.365 87.1823 271.006 87.1411 270.629 87.1411C270.2 87.1411 269.888 87.2235 269.7 87.3882C269.506 87.5529 269.412 87.747 269.412 87.9647C269.412 88.0411 269.423 88.1235 269.447 88.2059C269.47 88.2882 269.512 88.3647 269.576 88.4294C269.641 88.4941 269.735 88.5529 269.847 88.6117C269.965 88.6647 270.112 88.7 270.3 88.7117L271.653 88.8411C272.512 88.9294 273.147 89.1882 273.57 89.6235C273.994 90.0588 274.206 90.6353 274.206 91.3588L274.212 91.3764Z" fill="#15AAD6"/>
<path d="M285.1 94.0764V93.2705C284.806 93.5999 284.488 93.8352 284.159 93.9705C283.829 94.1058 283.435 94.1764 282.97 94.1764C282.553 94.1764 282.159 94.1058 281.782 93.9705C281.406 93.8352 281.1 93.6411 280.859 93.3999C280.641 93.194 280.47 92.947 280.359 92.6587C280.241 92.3764 280.159 92.0705 280.106 91.7528C280.053 91.4352 280.018 91.1058 280.006 90.7646C279.994 90.4234 279.988 90.094 279.988 89.7764C279.988 89.4587 279.988 89.1293 280.006 88.794C280.023 88.4587 280.047 88.1352 280.106 87.8117C280.159 87.494 280.247 87.194 280.359 86.9117C280.476 86.6293 280.641 86.3823 280.859 86.1646C281.1 85.9234 281.406 85.7352 281.771 85.594C282.135 85.4529 282.529 85.3881 282.947 85.3881C283.388 85.3881 283.771 85.4528 284.106 85.5764C284.441 85.6999 284.753 85.9234 285.035 86.2411V82.3352H287.176V94.0646H285.082L285.1 94.0764ZM285.053 89.7764C285.053 89.4234 285.035 89.0999 285.006 88.8058C284.971 88.5117 284.906 88.2529 284.8 88.0293C284.694 87.8117 284.547 87.6352 284.353 87.5117C284.159 87.3881 283.906 87.3234 283.588 87.3234C283.271 87.3234 283.012 87.3881 282.823 87.5117C282.629 87.6352 282.488 87.8117 282.388 88.0293C282.288 88.247 282.223 88.5058 282.188 88.8058C282.153 89.0999 282.141 89.4234 282.141 89.7764C282.141 90.1293 282.159 90.4529 282.188 90.7587C282.223 91.0587 282.288 91.3234 282.388 91.5411C282.488 91.7587 282.635 91.9352 282.823 92.0587C283.018 92.1823 283.271 92.247 283.588 92.247C283.906 92.247 284.159 92.1823 284.353 92.0587C284.547 91.9352 284.694 91.7587 284.8 91.5411C284.906 91.3234 284.971 91.0587 285.006 90.7587C285.041 90.4587 285.053 90.1293 285.053 89.7764Z" fill="#15AAD6"/>
<path d="M291.541 90.4529C291.541 91.0117 291.7 91.4705 292.029 91.8294C292.359 92.1882 292.818 92.3647 293.423 92.3647C293.894 92.3647 294.27 92.3 294.541 92.1647C294.818 92.0352 295.088 91.8294 295.365 91.5529L296.665 92.8235C296.447 93.0411 296.223 93.2352 296.006 93.4C295.788 93.5647 295.547 93.7058 295.288 93.8176C295.029 93.9294 294.747 94.0235 294.441 94.0823C294.135 94.1411 293.788 94.1705 293.406 94.1705C292.9 94.1705 292.412 94.1058 291.929 93.9705C291.453 93.8411 291.029 93.6058 290.659 93.2705C290.288 92.9352 289.994 92.4882 289.77 91.9176C289.547 91.3529 289.435 90.6352 289.435 89.7705C289.435 89.0705 289.523 88.447 289.706 87.9C289.888 87.3588 290.141 86.8999 290.47 86.5235C290.8 86.1529 291.194 85.8705 291.647 85.6764C292.1 85.4823 292.612 85.3882 293.17 85.3882C293.765 85.3882 294.294 85.4941 294.759 85.6999C295.223 85.9058 295.618 86.1941 295.935 86.5588C296.253 86.9235 296.494 87.3529 296.659 87.8529C296.823 88.3529 296.906 88.9 296.906 89.4941V90.447H291.535L291.541 90.4529ZM294.8 88.9882C294.788 88.8 294.77 88.6411 294.741 88.4999C294.712 88.3588 294.665 88.2176 294.6 88.0647C294.476 87.8117 294.3 87.5999 294.065 87.4294C293.829 87.2588 293.529 87.1764 293.165 87.1764C292.8 87.1764 292.506 87.2588 292.265 87.4294C292.029 87.5999 291.847 87.8117 291.729 88.0647C291.665 88.2176 291.618 88.3647 291.588 88.4999C291.559 88.6352 291.541 88.8 291.529 88.9882H294.788H294.8Z" fill="#15AAD6"/>
<path d="M309.688 91.3764C309.688 91.847 309.594 92.2588 309.406 92.6117C309.218 92.9647 308.959 93.2529 308.629 93.4823C308.3 93.7117 307.912 93.8882 307.471 94C307.023 94.1176 306.553 94.1706 306.047 94.1706C305.706 94.1706 305.376 94.1588 305.059 94.1294C304.741 94.1 304.429 94.047 304.118 93.9588C303.812 93.8706 303.512 93.747 303.229 93.5941C302.941 93.4353 302.665 93.2235 302.388 92.947L303.788 91.5529C304.141 91.9059 304.523 92.1294 304.947 92.2176C305.371 92.3117 305.747 92.3588 306.076 92.3588C306.265 92.3588 306.447 92.3411 306.629 92.3117C306.812 92.2764 306.971 92.2235 307.118 92.1529C307.259 92.0823 307.376 91.9882 307.465 91.8764C307.553 91.7647 307.594 91.6294 307.594 91.4588C307.594 91.2353 307.529 91.0588 307.394 90.9176C307.259 90.7764 307.023 90.6941 306.688 90.6588L305.335 90.5235C304.553 90.447 303.941 90.2235 303.5 89.8588C303.053 89.4882 302.835 88.9117 302.835 88.1235C302.835 87.6823 302.923 87.2941 303.106 86.9529C303.288 86.6117 303.529 86.3294 303.829 86.0941C304.129 85.8647 304.482 85.6882 304.882 85.5647C305.282 85.4411 305.7 85.3823 306.141 85.3823C306.812 85.3823 307.418 85.4529 307.971 85.5941C308.518 85.7353 309 86 309.418 86.3823L308.1 87.7176C307.847 87.5 307.547 87.347 307.194 87.2647C306.841 87.1823 306.482 87.1411 306.106 87.1411C305.676 87.1411 305.365 87.2235 305.176 87.3882C304.982 87.5529 304.888 87.747 304.888 87.9647C304.888 88.0411 304.9 88.1235 304.923 88.2059C304.947 88.2882 304.988 88.3647 305.053 88.4294C305.118 88.4941 305.212 88.5529 305.323 88.6117C305.441 88.6647 305.588 88.7 305.776 88.7117L307.129 88.8411C307.988 88.9294 308.623 89.1882 309.047 89.6235C309.471 90.0588 309.682 90.6353 309.682 91.3588L309.688 91.3764Z" fill="#15AAD6"/>
<path d="M316.147 94.0764V93.3353C315.859 93.6235 315.565 93.8294 315.247 93.9588C314.935 94.0882 314.529 94.1588 314.035 94.1588C313.082 94.1588 312.347 93.9059 311.847 93.4C311.618 93.1588 311.441 92.8706 311.318 92.5411C311.194 92.2117 311.135 91.8529 311.135 91.4706C311.135 91.1294 311.194 90.8117 311.318 90.5059C311.441 90.2059 311.618 89.9411 311.859 89.7176C312.1 89.4941 312.406 89.3117 312.771 89.1823C313.135 89.0529 313.571 88.9823 314.065 88.9823H316.088V88.5529C316.088 88.0823 315.965 87.7353 315.718 87.5235C315.471 87.3117 315.059 87.2 314.488 87.2C314.282 87.2 314.1 87.2117 313.947 87.2411C313.794 87.2706 313.653 87.3117 313.529 87.3647C313.406 87.4176 313.282 87.4882 313.176 87.5764C313.065 87.6647 312.959 87.7764 312.847 87.9058L311.482 86.5706C311.9 86.1117 312.341 85.7941 312.806 85.6294C313.271 85.4647 313.865 85.3823 314.576 85.3823C315.782 85.3823 316.694 85.6353 317.312 86.1411C317.923 86.647 318.235 87.4059 318.235 88.4117V94.0588H316.141L316.147 94.0764ZM316.1 90.4529H314.406C314.023 90.4529 313.723 90.5411 313.518 90.7059C313.312 90.8706 313.206 91.1176 313.206 91.4235C313.206 91.7294 313.306 91.9588 313.512 92.1411C313.712 92.3235 314.023 92.4117 314.441 92.4117C314.735 92.4117 314.988 92.3882 315.2 92.347C315.406 92.3059 315.606 92.1882 315.794 92C316 91.8 316.106 91.4411 316.106 90.9117V90.4529H316.1Z" fill="#15AAD6"/>
<path d="M325.747 94.0764V93.2882C325.459 93.5823 325.129 93.8058 324.759 93.9529C324.388 94.0999 324 94.1764 323.606 94.1764C323.176 94.1764 322.794 94.1117 322.453 93.9764C322.112 93.847 321.823 93.6588 321.582 93.4176C321.229 93.0646 321 92.6882 320.882 92.2882C320.765 91.8882 320.712 91.4529 320.712 90.9764V85.494H322.853V90.6823C322.853 90.9764 322.894 91.2235 322.976 91.4235C323.059 91.6235 323.17 91.7823 323.306 91.8999C323.441 92.0235 323.594 92.1058 323.765 92.1646C323.935 92.2176 324.1 92.247 324.265 92.247C324.429 92.247 324.594 92.2176 324.765 92.1646C324.935 92.1117 325.088 92.0235 325.223 91.8999C325.359 91.7764 325.471 91.6176 325.559 91.4235C325.647 91.2293 325.688 90.9764 325.688 90.6823V85.494H327.829V94.0764H325.735H325.747ZM324.794 84.1293H323.359L324.412 81.3293H326.67L324.794 84.1293Z" fill="#15AAD6"/>
<path d="M335.253 94.0764V93.2705C334.959 93.5999 334.641 93.8352 334.312 93.9705C333.982 94.1058 333.588 94.1764 333.123 94.1764C332.706 94.1764 332.312 94.1058 331.935 93.9705C331.559 93.8352 331.253 93.6411 331.012 93.3999C330.794 93.194 330.623 92.947 330.512 92.6587C330.394 92.3764 330.312 92.0705 330.259 91.7528C330.206 91.4352 330.171 91.1058 330.159 90.7646C330.147 90.4234 330.141 90.094 330.141 89.7764C330.141 89.4587 330.141 89.1293 330.159 88.794C330.176 88.4587 330.2 88.1352 330.259 87.8117C330.312 87.494 330.4 87.194 330.512 86.9117C330.629 86.6293 330.794 86.3823 331.012 86.1646C331.253 85.9234 331.559 85.7352 331.923 85.594C332.288 85.4529 332.682 85.3881 333.1 85.3881C333.541 85.3881 333.923 85.4528 334.259 85.5764C334.594 85.6999 334.906 85.9234 335.188 86.2411V82.3352H337.329V94.0646H335.235L335.253 94.0764ZM335.206 89.7764C335.206 89.4234 335.188 89.0999 335.159 88.8058C335.123 88.5117 335.059 88.2529 334.953 88.0293C334.847 87.8117 334.7 87.6352 334.506 87.5117C334.312 87.3881 334.059 87.3234 333.741 87.3234C333.423 87.3234 333.165 87.3881 332.976 87.5117C332.782 87.6352 332.641 87.8117 332.541 88.0293C332.441 88.247 332.376 88.5058 332.341 88.8058C332.306 89.0999 332.294 89.4234 332.294 89.7764C332.294 90.1293 332.312 90.4529 332.341 90.7587C332.376 91.0587 332.441 91.3234 332.541 91.5411C332.641 91.7587 332.788 91.9352 332.976 92.0587C333.171 92.1823 333.423 92.247 333.741 92.247C334.059 92.247 334.312 92.1823 334.506 92.0587C334.7 91.9352 334.847 91.7587 334.953 91.5411C335.059 91.3234 335.123 91.0587 335.159 90.7587C335.194 90.4587 335.206 90.1293 335.206 89.7764Z" fill="#15AAD6"/>
<path d="M341.694 90.4529C341.694 91.0117 341.853 91.4705 342.182 91.8294C342.512 92.1882 342.97 92.3647 343.576 92.3647C344.047 92.3647 344.423 92.3 344.694 92.1647C344.971 92.0352 345.241 91.8294 345.518 91.5529L346.818 92.8235C346.6 93.0411 346.376 93.2352 346.159 93.4C345.941 93.5647 345.7 93.7058 345.441 93.8176C345.182 93.9294 344.9 94.0235 344.594 94.0823C344.288 94.1411 343.941 94.1705 343.559 94.1705C343.053 94.1705 342.565 94.1058 342.082 93.9705C341.606 93.8411 341.182 93.6058 340.812 93.2705C340.441 92.9352 340.147 92.4882 339.923 91.9176C339.7 91.3529 339.588 90.6352 339.588 89.7705C339.588 89.0705 339.676 88.447 339.859 87.9C340.041 87.3588 340.294 86.8999 340.623 86.5235C340.953 86.1529 341.347 85.8705 341.8 85.6764C342.253 85.4823 342.765 85.3882 343.323 85.3882C343.918 85.3882 344.447 85.4941 344.912 85.6999C345.376 85.9058 345.77 86.1941 346.088 86.5588C346.406 86.9235 346.647 87.3529 346.812 87.8529C346.976 88.3529 347.059 88.9 347.059 89.4941V90.447H341.688L341.694 90.4529ZM344.953 88.9882C344.941 88.8 344.923 88.6411 344.894 88.4999C344.865 88.3588 344.818 88.2176 344.753 88.0647C344.629 87.8117 344.453 87.5999 344.218 87.4294C343.982 87.2588 343.682 87.1764 343.318 87.1764C342.953 87.1764 342.659 87.2588 342.418 87.4294C342.182 87.5999 342 87.8117 341.882 88.0647C341.818 88.2176 341.77 88.3647 341.741 88.4999C341.712 88.6352 341.694 88.8 341.682 88.9882H344.941H344.953Z" fill="#15AAD6"/>
<path d="M355.065 90.4529C355.065 91.0117 355.223 91.4705 355.553 91.8294C355.882 92.1882 356.341 92.3647 356.947 92.3647C357.418 92.3647 357.794 92.3 358.065 92.1647C358.341 92.0352 358.612 91.8294 358.888 91.5529L360.188 92.8235C359.97 93.0411 359.747 93.2352 359.529 93.4C359.312 93.5647 359.07 93.7058 358.812 93.8176C358.553 93.9294 358.27 94.0235 357.965 94.0823C357.659 94.1411 357.312 94.1705 356.929 94.1705C356.423 94.1705 355.935 94.1058 355.453 93.9705C354.976 93.8411 354.553 93.6058 354.182 93.2705C353.812 92.9352 353.518 92.4882 353.294 91.9176C353.07 91.3529 352.959 90.6352 352.959 89.7705C352.959 89.0705 353.047 88.447 353.229 87.9C353.412 87.3588 353.665 86.8999 353.994 86.5235C354.323 86.1529 354.718 85.8705 355.17 85.6764C355.623 85.4823 356.135 85.3882 356.694 85.3882C357.288 85.3882 357.818 85.4941 358.282 85.6999C358.747 85.9058 359.141 86.1941 359.459 86.5588C359.776 86.9235 360.018 87.3529 360.182 87.8529C360.347 88.3529 360.429 88.9 360.429 89.4941V90.447H355.059L355.065 90.4529ZM358.323 88.9882C358.312 88.8 358.294 88.6411 358.265 88.4999C358.235 88.3588 358.188 88.2176 358.123 88.0647C358 87.8117 357.823 87.5999 357.588 87.4294C357.353 87.2588 357.053 87.1764 356.688 87.1764C356.323 87.1764 356.029 87.2588 355.788 87.4294C355.553 87.5999 355.37 87.8117 355.253 88.0647C355.188 88.2176 355.141 88.3647 355.112 88.4999C355.082 88.6352 355.065 88.8 355.053 88.9882H358.312H358.323Z" fill="#15AAD6"/>
<path d="M373.659 89.7822C373.659 90.5646 373.594 91.2116 373.459 91.7352C373.329 92.2587 373.071 92.7234 372.682 93.1293C372.418 93.4175 372.065 93.6646 371.629 93.8705C371.188 94.0764 370.653 94.1822 370.018 94.1822C369.382 94.1822 368.847 94.0764 368.412 93.8705C367.976 93.6646 367.629 93.4175 367.365 93.1293C366.982 92.7234 366.723 92.2587 366.588 91.7352C366.459 91.2116 366.388 90.5646 366.388 89.7822C366.388 88.9999 366.453 88.3528 366.588 87.8411C366.718 87.3234 366.976 86.8646 367.365 86.4587C367.629 86.1705 367.976 85.9234 368.412 85.7175C368.847 85.5116 369.382 85.4058 370.018 85.4058C370.653 85.4058 371.194 85.5116 371.629 85.7175C372.071 85.9234 372.418 86.1705 372.682 86.4587C373.065 86.8646 373.323 87.3234 373.459 87.8411C373.588 88.3587 373.659 89.0058 373.659 89.7822ZM371.518 89.7822C371.518 89.3293 371.488 88.9293 371.435 88.5705C371.382 88.2116 371.241 87.9234 371.023 87.7058C370.771 87.4528 370.435 87.3293 370.018 87.3293C369.6 87.3293 369.282 87.4528 369.029 87.7058C368.812 87.9234 368.671 88.2116 368.618 88.5705C368.565 88.9293 368.535 89.3293 368.535 89.7822C368.535 90.2352 368.565 90.6411 368.618 90.9999C368.671 91.3646 368.812 91.6528 369.029 91.8705C369.282 92.1234 369.612 92.2469 370.018 92.2469C370.424 92.2469 370.771 92.1234 371.023 91.8705C371.241 91.6528 371.382 91.3587 371.435 90.9999C371.488 90.6352 371.518 90.2293 371.518 89.7822Z" fill="#15AAD6"/>
<path d="M380.712 94.0764V93.2705C380.418 93.5999 380.1 93.8352 379.77 93.9705C379.441 94.1058 379.047 94.1764 378.582 94.1764C378.165 94.1764 377.77 94.1058 377.394 93.9705C377.018 93.8352 376.712 93.6411 376.47 93.3999C376.253 93.194 376.082 92.947 375.971 92.6587C375.853 92.3764 375.77 92.0705 375.718 91.7528C375.665 91.4352 375.629 91.1058 375.618 90.7646C375.606 90.4234 375.6 90.094 375.6 89.7764C375.6 89.4587 375.6 89.1293 375.618 88.794C375.635 88.4587 375.659 88.1352 375.718 87.8117C375.77 87.494 375.859 87.194 375.971 86.9117C376.088 86.6293 376.253 86.3823 376.47 86.1646C376.712 85.9234 377.018 85.7352 377.382 85.594C377.747 85.4529 378.141 85.3881 378.559 85.3881C379 85.3881 379.382 85.4528 379.718 85.5764C380.053 85.6999 380.365 85.9234 380.647 86.2411V82.3352H382.788V94.0646H380.694L380.712 94.0764ZM380.665 89.7764C380.665 89.4234 380.647 89.0999 380.618 88.8058C380.582 88.5117 380.518 88.2529 380.412 88.0293C380.306 87.8117 380.159 87.6352 379.965 87.5117C379.77 87.3881 379.518 87.3234 379.2 87.3234C378.882 87.3234 378.623 87.3881 378.435 87.5117C378.241 87.6352 378.1 87.8117 378 88.0293C377.9 88.247 377.835 88.5058 377.8 88.8058C377.765 89.0999 377.753 89.4234 377.753 89.7764C377.753 90.1293 377.77 90.4529 377.8 90.7587C377.835 91.0587 377.9 91.3234 378 91.5411C378.1 91.7587 378.247 91.9352 378.435 92.0587C378.629 92.1823 378.882 92.247 379.2 92.247C379.518 92.247 379.77 92.1823 379.965 92.0587C380.159 91.9352 380.306 91.7587 380.412 91.5411C380.518 91.3234 380.582 91.0587 380.618 90.7587C380.653 90.4587 380.665 90.1293 380.665 89.7764Z" fill="#15AAD6"/>
<path d="M392.371 89.7822C392.371 90.5646 392.306 91.2116 392.171 91.7352C392.041 92.2587 391.782 92.7234 391.394 93.1293C391.129 93.4175 390.776 93.6646 390.341 93.8705C389.9 94.0764 389.365 94.1822 388.729 94.1822C388.094 94.1822 387.559 94.0764 387.123 93.8705C386.688 93.6646 386.341 93.4175 386.076 93.1293C385.694 92.7234 385.435 92.2587 385.3 91.7352C385.171 91.2116 385.1 90.5646 385.1 89.7822C385.1 88.9999 385.165 88.3528 385.3 87.8411C385.429 87.3234 385.688 86.8646 386.076 86.4587C386.341 86.1705 386.688 85.9234 387.123 85.7175C387.559 85.5116 388.094 85.4058 388.729 85.4058C389.365 85.4058 389.906 85.5116 390.341 85.7175C390.782 85.9234 391.129 86.1705 391.394 86.4587C391.776 86.8646 392.035 87.3234 392.171 87.8411C392.3 88.3587 392.371 89.0058 392.371 89.7822ZM390.229 89.7822C390.229 89.3293 390.2 88.9293 390.147 88.5705C390.094 88.2116 389.953 87.9234 389.735 87.7058C389.482 87.4528 389.147 87.3293 388.729 87.3293C388.312 87.3293 387.994 87.4528 387.741 87.7058C387.523 87.9234 387.382 88.2116 387.329 88.5705C387.276 88.9293 387.247 89.3293 387.247 89.7822C387.247 90.2352 387.276 90.6411 387.329 90.9999C387.382 91.3646 387.523 91.6528 387.741 91.8705C387.994 92.1234 388.323 92.2469 388.729 92.2469C389.135 92.2469 389.482 92.1234 389.735 91.8705C389.953 91.6528 390.094 91.3587 390.147 90.9999C390.2 90.6352 390.229 90.2293 390.229 89.7822Z" fill="#15AAD6"/>
<path d="M399.671 94.0764V88.8882C399.671 88.594 399.629 88.347 399.547 88.147C399.465 87.947 399.353 87.7882 399.218 87.6705C399.082 87.5529 398.929 87.4646 398.759 87.4058C398.588 87.3529 398.423 87.3235 398.259 87.3235C398.094 87.3235 397.929 87.3529 397.759 87.4058C397.588 87.4587 397.435 87.547 397.3 87.6705C397.165 87.794 397.053 87.9529 396.965 88.147C396.876 88.3411 396.835 88.594 396.835 88.8882V94.0764H394.694V85.494H396.788V86.2823C397.076 85.9882 397.406 85.7646 397.776 85.6176C398.147 85.4705 398.535 85.394 398.929 85.394C399.359 85.394 399.741 85.4588 400.082 85.594C400.423 85.7235 400.712 85.9117 400.953 86.1529C401.306 86.5058 401.535 86.8823 401.653 87.2823C401.771 87.6823 401.823 88.1176 401.823 88.594V94.0764H399.682H399.671Z" fill="#15AAD6"/>
<path d="M407.065 94.0764C406.623 94.0764 406.247 94.0058 405.935 93.8646C405.623 93.7234 405.365 93.5352 405.159 93.3058C404.953 93.0764 404.806 92.8117 404.712 92.5234C404.618 92.2352 404.571 91.9352 404.571 91.6234V87.3764H403.665V85.747H404.571V83.2117H406.712V85.747H408.229V87.3764H406.712V91.494C406.712 92.0117 406.959 92.2705 407.453 92.2705H408.229V94.0823H407.059L407.065 94.0764Z" fill="#15AAD6"/>
<path d="M417.294 89.7822C417.294 90.5646 417.229 91.2116 417.094 91.7352C416.965 92.2587 416.706 92.7234 416.318 93.1293C416.053 93.4175 415.7 93.6646 415.265 93.8705C414.823 94.0764 414.288 94.1822 413.653 94.1822C413.018 94.1822 412.482 94.0764 412.047 93.8705C411.612 93.6646 411.265 93.4175 411 93.1293C410.618 92.7234 410.359 92.2587 410.223 91.7352C410.094 91.2116 410.023 90.5646 410.023 89.7822C410.023 88.9999 410.088 88.3528 410.223 87.8411C410.353 87.3234 410.612 86.8646 411 86.4587C411.265 86.1705 411.612 85.9234 412.047 85.7175C412.482 85.5116 413.018 85.4058 413.653 85.4058C414.288 85.4058 414.829 85.5116 415.265 85.7175C415.706 85.9234 416.053 86.1705 416.318 86.4587C416.7 86.8646 416.959 87.3234 417.094 87.8411C417.223 88.3587 417.294 89.0058 417.294 89.7822ZM415.153 89.7822C415.153 89.3293 415.123 88.9293 415.071 88.5705C415.018 88.2116 414.876 87.9234 414.659 87.7058C414.406 87.4528 414.071 87.3293 413.653 87.3293C413.235 87.3293 412.918 87.4528 412.665 87.7058C412.447 87.9234 412.306 88.2116 412.253 88.5705C412.2 88.9293 412.171 89.3293 412.171 89.7822C412.171 90.2352 412.2 90.6411 412.253 90.9999C412.306 91.3646 412.447 91.6528 412.665 91.8705C412.918 92.1234 413.247 92.2469 413.653 92.2469C414.059 92.2469 414.406 92.1234 414.659 91.8705C414.876 91.6528 415.018 91.3587 415.071 90.9999C415.123 90.6352 415.153 90.2293 415.153 89.7822Z" fill="#15AAD6"/>
<path d="M422.018 94.0763C421.576 94.0763 421.2 94.0057 420.882 93.8645C420.565 93.7234 420.306 93.5351 420.1 93.3057C419.894 93.0763 419.747 92.8116 419.653 92.5234C419.559 92.2351 419.512 91.9351 419.512 91.6234V82.3528H421.653V91.494C421.653 91.7469 421.712 91.941 421.823 92.0704C421.941 92.1998 422.135 92.2704 422.406 92.2704H423.229V94.0822H422.012L422.018 94.0763Z" fill="#15AAD6"/>
<path d="M432.118 89.7823C432.118 90.5646 432.053 91.2117 431.918 91.7352C431.788 92.2587 431.529 92.7234 431.141 93.1293C430.876 93.4176 430.523 93.6646 430.088 93.8705C429.647 94.0764 429.112 94.1823 428.476 94.1823C427.841 94.1823 427.306 94.0764 426.87 93.8705C426.435 93.6646 426.088 93.4176 425.823 93.1293C425.441 92.7234 425.182 92.2587 425.047 91.7352C424.918 91.2117 424.847 90.5646 424.847 89.7823C424.847 88.9999 424.912 88.3529 425.047 87.8411C425.176 87.3234 425.435 86.8646 425.823 86.4587C426.088 86.1705 426.435 85.9234 426.87 85.7176C427.306 85.5117 427.841 85.4058 428.476 85.4058C429.112 85.4058 429.653 85.5117 430.088 85.7176C430.529 85.9234 430.876 86.1705 431.141 86.4587C431.523 86.8646 431.782 87.3234 431.918 87.8411C432.047 88.3587 432.118 89.0058 432.118 89.7823ZM429.976 89.7823C429.976 89.3293 429.947 88.9293 429.894 88.5705C429.841 88.2117 429.7 87.9234 429.482 87.7058C429.229 87.4529 428.894 87.3293 428.476 87.3293C428.059 87.3293 427.741 87.4529 427.488 87.7058C427.27 87.9234 427.129 88.2117 427.076 88.5705C427.023 88.9293 426.994 89.3293 426.994 89.7823C426.994 90.2352 427.023 90.6411 427.076 90.9999C427.129 91.3646 427.27 91.6529 427.488 91.8705C427.741 92.1234 428.07 92.247 428.476 92.247C428.882 92.247 429.229 92.1234 429.482 91.8705C429.7 91.6529 429.841 91.3587 429.894 90.9999C429.947 90.6352 429.976 90.2293 429.976 89.7823ZM429.023 84.1352H427.588L428.641 81.3352H430.9L429.023 84.1352Z" fill="#15AAD6"/>
<path d="M441.159 93.7647C441.159 94.2823 441.071 94.7529 440.894 95.1882C440.718 95.6235 440.465 96 440.135 96.3176C439.806 96.6353 439.406 96.8823 438.941 97.0588C438.476 97.2353 437.953 97.3235 437.382 97.3235C436.723 97.3235 436.153 97.2411 435.671 97.0823C435.188 96.9235 434.723 96.6294 434.271 96.2L435.606 94.847C435.847 95.0764 436.1 95.247 436.353 95.347C436.606 95.447 436.923 95.5059 437.282 95.5059C437.6 95.5059 437.87 95.4529 438.088 95.347C438.306 95.2411 438.488 95.1059 438.623 94.9411C438.759 94.7764 438.859 94.5882 438.918 94.3706C438.976 94.1588 439.006 93.9411 439.006 93.7176V92.847C438.718 93.1647 438.412 93.3882 438.082 93.5117C437.753 93.6353 437.376 93.7 436.965 93.7C436.553 93.7 436.165 93.6353 435.812 93.5C435.459 93.3706 435.165 93.1823 434.923 92.9411C434.723 92.7411 434.565 92.5235 434.447 92.2823C434.323 92.0411 434.241 91.7823 434.182 91.5C434.129 91.2176 434.094 90.9176 434.076 90.5882C434.059 90.2588 434.053 89.9059 434.053 89.5353C434.053 89.1647 434.059 88.8117 434.076 88.4882C434.094 88.1647 434.129 87.8647 434.182 87.5823C434.235 87.3 434.323 87.0411 434.447 86.8C434.57 86.5588 434.729 86.3411 434.923 86.1411C435.165 85.9 435.465 85.7117 435.823 85.5823C436.182 85.4529 436.565 85.3823 436.982 85.3823C437.441 85.3823 437.835 85.4529 438.153 85.5882C438.47 85.7235 438.776 85.9588 439.076 86.2882V85.4823H441.153V93.7529L441.159 93.7647ZM439.018 89.547C439.018 89.2647 439.006 88.9823 438.976 88.7176C438.947 88.447 438.888 88.2117 438.788 88.0117C438.688 87.8117 438.547 87.6411 438.359 87.5176C438.171 87.3941 437.918 87.3294 437.6 87.3294C437.282 87.3294 437.029 87.3941 436.841 87.5176C436.653 87.6411 436.512 87.8117 436.423 88.0117C436.329 88.2176 436.27 88.4529 436.241 88.7176C436.212 88.9882 436.2 89.2647 436.2 89.547C436.2 89.8294 436.212 90.1117 436.241 90.3764C436.27 90.647 436.329 90.8823 436.423 91.0941C436.518 91.3 436.659 91.4706 436.841 91.5941C437.029 91.7176 437.282 91.7823 437.6 91.7823C437.918 91.7823 438.171 91.7176 438.359 91.5941C438.547 91.4706 438.688 91.3 438.788 91.0941C438.888 90.8882 438.953 90.647 438.976 90.3764C439.006 90.1059 439.018 89.8294 439.018 89.547Z" fill="#15AAD6"/>
<path d="M443.794 84.0293V82.2822H445.982V84.0293H443.794ZM443.829 94.0763V85.494H445.97V94.0763H443.829Z" fill="#15AAD6"/>
<path d="M453.6 93.8882C453.147 94.0823 452.618 94.1764 452.029 94.1764C451.6 94.1764 451.159 94.1117 450.706 93.9764C450.253 93.847 449.841 93.6117 449.47 93.2764C449.1 92.9411 448.8 92.494 448.559 91.9235C448.317 91.3587 448.194 90.6411 448.194 89.7764C448.194 88.9117 448.317 88.194 448.559 87.6293C448.8 87.0646 449.106 86.6176 449.47 86.2882C449.835 85.9587 450.253 85.7293 450.706 85.594C451.159 85.4646 451.606 85.394 452.029 85.394C452.623 85.394 453.147 85.4882 453.6 85.6764C454.053 85.8646 454.476 86.1529 454.859 86.547L453.412 87.994C453.194 87.7529 452.976 87.5823 452.77 87.4764C452.565 87.3705 452.318 87.3176 452.029 87.3176C451.523 87.3176 451.118 87.5058 450.812 87.8764C450.647 88.0823 450.523 88.3352 450.447 88.6352C450.37 88.9293 450.329 89.3117 450.329 89.7705C450.329 90.647 450.488 91.2882 450.806 91.6823C451.112 92.0529 451.518 92.2411 452.023 92.2411C452.312 92.2411 452.559 92.1882 452.765 92.0823C452.97 91.9764 453.188 91.8058 453.406 91.5646L454.853 92.9999C454.47 93.394 454.047 93.6882 453.594 93.8823L453.6 93.8882Z" fill="#15AAD6"/>
<path d="M463.394 89.7822C463.394 90.5646 463.329 91.2116 463.194 91.7352C463.065 92.2587 462.806 92.7234 462.418 93.1293C462.153 93.4175 461.8 93.6646 461.365 93.8705C460.923 94.0764 460.388 94.1822 459.753 94.1822C459.118 94.1822 458.582 94.0764 458.147 93.8705C457.712 93.6646 457.365 93.4175 457.1 93.1293C456.718 92.7234 456.459 92.2587 456.323 91.7352C456.194 91.2116 456.123 90.5646 456.123 89.7822C456.123 88.9999 456.188 88.3528 456.323 87.8411C456.453 87.3234 456.712 86.8646 457.1 86.4587C457.365 86.1705 457.712 85.9234 458.147 85.7175C458.582 85.5116 459.118 85.4058 459.753 85.4058C460.388 85.4058 460.929 85.5116 461.365 85.7175C461.806 85.9234 462.153 86.1705 462.418 86.4587C462.8 86.8646 463.059 87.3234 463.194 87.8411C463.323 88.3587 463.394 89.0058 463.394 89.7822ZM461.253 89.7822C461.253 89.3293 461.223 88.9293 461.17 88.5705C461.118 88.2116 460.976 87.9234 460.759 87.7058C460.506 87.4528 460.17 87.3293 459.753 87.3293C459.335 87.3293 459.018 87.4528 458.765 87.7058C458.547 87.9234 458.406 88.2116 458.353 88.5705C458.3 88.9293 458.27 89.3293 458.27 89.7822C458.27 90.2352 458.3 90.6411 458.353 90.9999C458.406 91.3646 458.547 91.6528 458.765 91.8705C459.018 92.1234 459.347 92.2469 459.753 92.2469C460.159 92.2469 460.506 92.1234 460.759 91.8705C460.976 91.6528 461.118 91.3587 461.17 90.9999C461.223 90.6352 461.253 90.2293 461.253 89.7822Z" fill="#15AAD6"/>
<path d="M472.153 91.3764C472.153 91.847 472.059 92.2588 471.87 92.6117C471.682 92.9647 471.423 93.2529 471.094 93.4823C470.765 93.7117 470.376 93.8882 469.935 94C469.488 94.1176 469.018 94.1706 468.512 94.1706C468.17 94.1706 467.841 94.1588 467.523 94.1294C467.206 94.1 466.894 94.047 466.582 93.9588C466.276 93.8706 465.976 93.747 465.694 93.5941C465.406 93.4353 465.129 93.2235 464.853 92.947L466.253 91.5529C466.606 91.9059 466.988 92.1294 467.412 92.2176C467.835 92.3117 468.212 92.3588 468.541 92.3588C468.729 92.3588 468.912 92.3411 469.094 92.3117C469.276 92.2764 469.435 92.2235 469.582 92.1529C469.723 92.0823 469.841 91.9882 469.929 91.8764C470.018 91.7647 470.059 91.6294 470.059 91.4588C470.059 91.2353 469.994 91.0588 469.859 90.9176C469.723 90.7764 469.488 90.6941 469.153 90.6588L467.8 90.5235C467.018 90.447 466.406 90.2235 465.965 89.8588C465.518 89.4882 465.3 88.9117 465.3 88.1235C465.3 87.6823 465.388 87.2941 465.57 86.9529C465.753 86.6117 465.994 86.3294 466.294 86.0941C466.594 85.8647 466.947 85.6882 467.347 85.5647C467.747 85.4411 468.165 85.3823 468.606 85.3823C469.276 85.3823 469.882 85.4529 470.435 85.5941C470.982 85.7353 471.465 86 471.882 86.3823L470.565 87.7176C470.312 87.5 470.012 87.347 469.659 87.2647C469.306 87.1823 468.947 87.1411 468.57 87.1411C468.141 87.1411 467.829 87.2235 467.641 87.3882C467.447 87.5529 467.353 87.747 467.353 87.9647C467.353 88.0411 467.365 88.1235 467.388 88.2059C467.412 88.2882 467.453 88.3647 467.518 88.4294C467.582 88.4941 467.676 88.5529 467.788 88.6117C467.906 88.6647 468.053 88.7 468.241 88.7117L469.594 88.8411C470.453 88.9294 471.088 89.1882 471.512 89.6235C471.935 90.0588 472.147 90.6353 472.147 91.3588L472.153 91.3764Z" fill="#15AAD6"/>
</g>
</g>
<defs>
<filter id="filter0_d_6_51" x="0" y="0" width="523.618" height="140" filterUnits="userSpaceOnUse" color-interpolation-filters="sRGB">
<feFlood flood-opacity="0" result="BackgroundImageFix"/>
<feColorMatrix in="SourceAlpha" type="matrix" values="0 0 0 0 0 0 0 0 0 0 0 0 0 0 0 0 0 0 127 0" result="hardAlpha"/>
<feOffset dy="2"/>
<feGaussianBlur stdDeviation="5"/>
<feComposite in2="hardAlpha" operator="out"/>
<feColorMatrix type="matrix" values="0 0 0 0 0 0 0 0 0 0 0 0 0 0 0 0 0 0 0.1 0"/>
<feBlend mode="normal" in2="BackgroundImageFix" result="effect1_dropShadow_6_51"/>
<feBlend mode="normal" in="SourceGraphic" in2="effect1_dropShadow_6_51" result="shape"/>
</filter>
<clipPath id="clip0_6_51">
<rect width="423.618" height="60" fill="white" transform="translate(50 38)"/>
</clipPath>
</defs>
</svg>
